<?xml version="1.0" encoding="utf-8"?>
<!-- Generator: Adobe Illustrator 15.1.0, SVG Export Plug-In  -->
<!DOCTYPE svg PUBLIC "-//W3C//DTD SVG 1.1//EN" "http://www.w3.org/Graphics/SVG/1.1/DTD/svg11.dtd" [
	<!ENTITY ns_flows "http://ns.adobe.com/Flows/1.0/">
]>
<svg version="1.1"
	 xmlns="http://www.w3.org/2000/svg" xmlns:xlink="http://www.w3.org/1999/xlink" xmlns:a="http://ns.adobe.com/AdobeSVGViewerExtensions/3.0/"
	 x="0px" y="0px" width="379px" height="167px" viewBox="-9.824 -6.446 379 167"
	 overflow="visible" enable-background="new -9.824 -6.446 379 167" xml:space="preserve">
<defs>
</defs>
<path fill="#807F83" d="M212.581,107.256l-83.896,0.003c-11.133-7.251-18.803-17.853-22.281-31.091l32.24-70.465
	c0,0,19.873-5.703,32.045-5.703c42.629,0,66.402,22.748,66.402,63.326c0,1.641,0,3.074,0,4.713h-94.273
	c0.41,16.192,11.477,26.438,27.871,26.438c13.119,0,22.75-5.945,26.848-15.986h37.711
	C230.846,90.695,223.123,100.459,212.581,107.256z M199.178,45.086c-1.23-13.525-11.682-22.133-27.668-22.133
	c-15.984,0-26.438,8.607-27.666,22.133H199.178z"/>
<path fill="#807F83" d="M273.371,78.083c1.025,11.475,10.863,15.779,30.947,15.779c15.166,0,23.568-4.918,23.568-10.863
	c0-6.762-6.15-7.992-19.061-9.018l-30.945-2.663c-23.158-2.049-37.094-15.369-37.094-33.814C240.787,13.525,261.486,0,300.834,0
	c37.914,0,59.227,13.936,59.227,35.865c0,0.408,0,0.613,0,1.023h-34.225c-1.639-9.838-10.451-14.346-26.848-14.346
	c-14.551,0-22.133,4.1-22.133,10.041c0,6.354,8.199,9.018,25.617,10.453l23.979,1.846c23.979,1.844,36.889,13.73,36.889,32.995
	c0,12.655-4.943,22.549-14.734,29.374l-95.4,0.002c-9.897-6.721-15.213-16.482-15.902-29.171H273.371z"/>
<path fill="#807F83" d="M16.6,122.964h19.674c8.607,0,12.912-3.484,12.912-10.043c0-2.664-0.408-5.123-1.23-6.967L0,3.893h38.119
	l29.51,71.114L99.602,3.893h35.441L75.418,130.548c-4.918,10.041-10.658,16.803-17.42,20.082c-4.92,2.461-10.861,2.666-17.625,2.666
	c-1.639,0-3.689,0-5.533,0H16.6V122.964z"/>
<path d="M104.917,116.279l-7.512,7.432v4.822H94.83v-4.822l-7.469-7.432h3.141l5.646,5.59l5.649-5.59H104.917z"/>
<path d="M121.743,122.377c0,2.006-0.923,3.64-2.769,4.901c-1.574,1.076-3.541,1.614-5.902,1.614s-4.335-0.538-5.924-1.614
	c-1.846-1.249-2.769-2.882-2.769-4.901c0-1.992,0.93-3.613,2.79-4.862c1.631-1.103,3.598-1.653,5.902-1.653
	c2.289,0,4.25,0.551,5.88,1.653C120.813,118.777,121.743,120.397,121.743,122.377z M119.061,122.367
	c0-1.266-0.559-2.307-1.677-3.126c-1.118-0.819-2.559-1.229-4.321-1.229c-1.777,0-3.229,0.413-4.354,1.238
	c-1.125,0.825-1.688,1.864-1.688,3.116c0,1.305,0.552,2.359,1.656,3.165c1.104,0.806,2.566,1.208,4.386,1.208
	c1.806,0,3.257-0.402,4.354-1.208S119.061,123.672,119.061,122.367z"/>
<path d="M138.548,124.509c0,1.288-0.694,2.341-2.082,3.158c-1.388,0.817-3.249,1.226-5.581,1.226c-2.347,0-4.214-0.408-5.602-1.226
	s-2.082-1.87-2.082-3.158v-8.229h2.575v7.751c0,1.808,1.703,2.71,5.108,2.71c3.391,0,5.087-0.902,5.087-2.71v-7.751h2.575V124.509z"
	/>
<path d="M157.199,128.533h-2.951l-3.456-4.503h-6.556v4.503h-2.576v-12.254h10.667c1.402,0,2.518,0.352,3.348,1.057
	c0.83,0.703,1.245,1.646,1.245,2.829c0,2.032-1.095,3.274-3.284,3.726L157.199,128.533z M151.941,121.879
	c1.559,0,2.339-0.559,2.339-1.674c0-1.182-0.83-1.773-2.49-1.773h-7.555v3.447H151.941z"/>
<path fill="#E31B23" d="M175.57,128.533h-14.208v-12.254h13.714v2.152h-11.139v2.65h7.748v2.151h-7.748v3.148h11.632V128.533z"/>
<path fill="#E31B23" d="M192.718,116.279l-7.297,12.254h-2.962l-7.297-12.254h2.845l5.933,10.17l5.933-10.17H192.718z"/>
<path fill="#E31B23" d="M207.033,128.533h-14.208v-12.254h13.714v2.152h-11.138v2.65h7.748v2.151h-7.748v3.148h11.632V128.533z"/>
<path fill="#E31B23" d="M224.504,128.533h-3.842l-8.972-10.222v10.222h-2.575v-12.254h3.837l8.976,10.227v-10.227h2.576V128.533z"/>
<path fill="#E31B23" d="M240.814,118.432h-6.311v10.102h-2.575v-10.102h-6.31v-2.152h15.195V118.432z"/>
<path d="M254.313,119.309c-1.717-0.838-3.584-1.256-5.602-1.256c-2.934,0-4.399,0.484-4.399,1.455c0,0.57,0.551,0.943,1.652,1.115
	c1.502,0.119,3.004,0.246,4.507,0.379c2.16,0.199,3.698,0.558,4.614,1.076c1.016,0.57,1.523,1.441,1.523,2.609
	c0,1.315-0.633,2.332-1.898,3.049c-1.267,0.718-3.102,1.076-5.506,1.076c-3.391,0-6.102-0.717-8.134-2.152l1.396-1.693
	c1.816,1.183,4.049,1.773,6.695,1.773c1.488,0,2.641-0.176,3.456-0.527c0.815-0.353,1.224-0.82,1.224-1.405
	c0-0.651-0.502-1.108-1.503-1.375c-0.558-0.146-1.424-0.245-2.597-0.299c-1.832-0.079-2.955-0.14-3.369-0.179
	c-1.632-0.146-2.834-0.473-3.606-0.977c-0.772-0.505-1.159-1.242-1.159-2.213c0-1.168,0.619-2.095,1.857-2.779
	c1.236-0.684,2.973-1.025,5.204-1.025c2.976,0,5.388,0.598,7.233,1.793L254.313,119.309z"/>
<path d="M274.724,122.377c0,2.006-0.923,3.64-2.769,4.901c-1.574,1.076-3.541,1.614-5.902,1.614c-2.36,0-4.335-0.538-5.924-1.614
	c-1.846-1.249-2.768-2.882-2.768-4.901c0-1.992,0.93-3.613,2.789-4.862c1.632-1.103,3.599-1.653,5.902-1.653
	c2.289,0,4.25,0.551,5.881,1.653C273.793,118.777,274.724,120.397,274.724,122.377z M272.041,122.367
	c0-1.266-0.559-2.307-1.678-3.126c-1.117-0.819-2.559-1.229-4.32-1.229c-1.777,0-3.229,0.413-4.354,1.238
	c-1.126,0.825-1.688,1.864-1.688,3.116c0,1.305,0.553,2.359,1.656,3.165s2.566,1.208,4.387,1.208c1.806,0,3.256-0.402,4.354-1.208
	C271.492,124.727,272.041,123.672,272.041,122.367z"/>
<path d="M289.104,128.533h-12.77v-12.254h2.575v10.103h10.194V128.533z"/>
<path d="M304.985,124.509c0,1.288-0.694,2.341-2.081,3.158c-1.389,0.817-3.249,1.226-5.581,1.226c-2.347,0-4.214-0.408-5.602-1.226
	s-2.081-1.87-2.081-3.158v-8.229h2.574v7.751c0,1.808,1.703,2.71,5.108,2.71c3.392,0,5.087-0.902,5.087-2.71v-7.751h2.575V124.509z"
	/>
<path d="M321.146,118.432h-6.31v10.102h-2.575v-10.102h-6.311v-2.152h15.195V118.432z"/>
<path d="M325.268,128.533h-2.576v-12.254h2.576V128.533z"/>
<path d="M344.668,122.377c0,2.006-0.922,3.64-2.768,4.901c-1.574,1.076-3.541,1.614-5.902,1.614s-4.336-0.538-5.924-1.614
	c-1.846-1.249-2.769-2.882-2.769-4.901c0-1.992,0.93-3.613,2.79-4.862c1.631-1.103,3.598-1.653,5.902-1.653
	c2.289,0,4.25,0.551,5.881,1.653C343.738,118.777,344.668,120.397,344.668,122.377z M341.986,122.367
	c0-1.266-0.56-2.307-1.678-3.126c-1.117-0.819-2.559-1.229-4.321-1.229c-1.777,0-3.229,0.413-4.354,1.238s-1.688,1.864-1.688,3.116
	c0,1.305,0.552,2.359,1.656,3.165c1.104,0.806,2.565,1.208,4.386,1.208c1.806,0,3.257-0.402,4.354-1.208
	S341.986,123.672,341.986,122.367z"/>
<path d="M361.666,128.533h-3.842l-8.971-10.222v10.222h-2.576v-12.254h3.838l8.976,10.227v-10.227h2.575V128.533z"/>
<path fill="#E2E2E3" d="M101.801,142.52l-5.654-5.585l-5.642,5.593l-3.141,0.003l7.462-7.438l-0.004-4.821l2.575-0.002l0.004,4.821
	l7.518,7.428L101.801,142.52z"/>
<path fill="#E2E2E3" d="M118.955,141.271c-1.63,1.104-3.59,1.656-5.879,1.658c-2.304,0.002-4.271-0.549-5.903-1.649
	c-1.861-1.247-2.792-2.868-2.794-4.86c-0.002-2.02,0.92-3.653,2.764-4.903c1.588-1.077,3.562-1.616,5.922-1.618
	s4.329,0.535,5.903,1.609c1.847,1.261,2.771,2.895,2.773,4.9C121.743,138.387,120.814,140.008,118.955,141.271z M117.411,133.256
	c-1.097-0.805-2.549-1.207-4.355-1.205c-1.82,0.001-3.282,0.404-4.385,1.211s-1.654,1.862-1.653,3.167
	c0.001,1.251,0.564,2.29,1.69,3.114s2.578,1.236,4.355,1.234c1.763-0.001,3.203-0.411,4.32-1.23c1.118-0.82,1.676-1.862,1.675-3.127
	C119.058,135.115,118.508,134.061,117.411,133.256z"/>
<path fill="#E2E2E3" d="M138.552,142.492l-2.576,0.002l-0.007-7.75c-0.001-1.808-1.698-2.709-5.089-2.707
	c-3.405,0.003-5.107,0.907-5.105,2.715l0.007,7.75l-2.575,0.002l-0.007-8.229c-0.001-1.288,0.691-2.342,2.079-3.159
	c1.387-0.818,3.254-1.229,5.601-1.23c2.332-0.002,4.192,0.406,5.581,1.223c1.388,0.814,2.083,1.867,2.084,3.156L138.552,142.492z"/>
<path fill="#E2E2E3" d="M153.633,134.87c2.189,0.45,3.285,1.691,3.287,3.724c0.001,1.182-0.414,2.126-1.243,2.83
	c-0.829,0.705-1.945,1.059-3.347,1.059l-10.667,0.008l-0.011-12.254l2.576-0.002l0.004,4.504l6.556-0.006l3.452-4.506l2.951-0.002
	L153.633,134.87z M144.234,136.89l0.003,3.446l7.555-0.005c1.66-0.001,2.489-0.593,2.488-1.776
	c-0.001-1.115-0.781-1.672-2.341-1.671L144.234,136.89z"/>
<path fill="#E2E2E3" d="M175.564,132.363l-11.632,0.008l0.002,3.148l7.748-0.005l0.002,2.151l-7.748,0.006l0.002,2.65l11.139-0.008
	l0.002,2.152l-13.714,0.01l-0.011-12.255l14.208-0.011L175.564,132.363z"/>
<path fill="#E2E2E3" d="M189.877,142.455l-5.942-10.166l-5.924,10.175l-2.845,0.003l7.286-12.26l2.962-0.003l7.307,12.249
	L189.877,142.455z"/>
<path fill="#E2E2E3" d="M207.027,132.34l-11.632,0.009l0.002,3.148l7.747-0.005l0.002,2.151l-7.747,0.005l0.002,2.65l11.139-0.008
	l0.002,2.152l-13.715,0.01l-0.011-12.254l14.208-0.011L207.027,132.34z"/>
<path fill="#E2E2E3" d="M224.506,142.43l-2.575,0.002l-0.009-10.227l-8.967,10.233l-3.838,0.003l-0.01-12.254l2.575-0.002
	l0.009,10.221l8.963-10.228l3.841-0.003L224.506,142.43z"/>
<path fill="#E2E2E3" d="M240.817,142.418l-15.195,0.012l-0.002-2.152l6.31-0.005l-0.009-10.103l2.575-0.002l0.01,10.103l6.31-0.005
	L240.817,142.418z"/>
<path fill="#E2E2E3" d="M255.902,140.933c-1.844,1.196-4.255,1.796-7.23,1.799c-2.232,0.001-3.967-0.339-5.205-1.022
	s-1.857-1.609-1.859-2.779c0-0.969,0.385-1.707,1.157-2.211c0.772-0.507,1.974-0.832,3.604-0.98c0.415-0.039,1.538-0.1,3.369-0.182
	c1.174-0.054,2.039-0.154,2.598-0.301c1.001-0.266,1.502-0.725,1.501-1.375c-0.001-0.585-0.409-1.053-1.226-1.404
	c-0.814-0.352-1.967-0.526-3.455-0.525c-2.647,0.002-4.879,0.594-6.695,1.778l-1.396-1.692c2.03-1.437,4.741-2.156,8.132-2.158
	c2.404-0.002,4.239,0.355,5.506,1.072c1.268,0.716,1.901,1.732,1.902,3.047c0.001,1.169-0.506,2.039-1.521,2.611
	c-0.916,0.52-2.453,0.879-4.613,1.079c-1.502,0.134-3.005,0.262-4.507,0.382c-1.103,0.174-1.652,0.546-1.651,1.117
	c0,0.969,1.467,1.453,4.4,1.451c2.018-0.001,3.885-0.421,5.601-1.26L255.902,140.933z"/>
<path fill="#E2E2E3" d="M271.936,141.16c-1.631,1.104-3.59,1.656-5.879,1.658c-2.305,0.002-4.271-0.549-5.904-1.649
	c-1.861-1.248-2.792-2.868-2.793-4.86c-0.002-2.02,0.92-3.654,2.764-4.903c1.588-1.077,3.562-1.617,5.922-1.618
	c2.361-0.002,4.329,0.534,5.904,1.609c1.847,1.26,2.771,2.894,2.772,4.9C274.723,138.275,273.795,139.896,271.936,141.16z
	 M270.391,133.144c-1.097-0.805-2.549-1.206-4.354-1.204c-1.819,0.001-3.282,0.404-4.385,1.211s-1.653,1.861-1.653,3.166
	c0.002,1.252,0.564,2.29,1.691,3.115c1.125,0.824,2.577,1.235,4.354,1.234c1.763-0.002,3.203-0.412,4.32-1.231
	c1.118-0.819,1.676-1.862,1.675-3.126C272.038,135.004,271.488,133.949,270.391,133.144z"/>
<path fill="#E2E2E3" d="M289.098,132.28l-10.195,0.008l0.01,10.103l-2.576,0.002l-0.011-12.255l12.771-0.009L289.098,132.28z"/>
<path fill="#E2E2E3" d="M304.988,142.371l-2.576,0.002l-0.007-7.751c-0.001-1.808-1.698-2.708-5.089-2.706
	c-3.405,0.002-5.107,0.906-5.105,2.714l0.007,7.751l-2.575,0.002l-0.008-8.229c0-1.288,0.691-2.343,2.08-3.16
	c1.387-0.817,3.254-1.228,5.6-1.229c2.332-0.002,4.193,0.406,5.582,1.222c1.388,0.815,2.083,1.868,2.084,3.157L304.988,142.371z"/>
<path fill="#E2E2E3" d="M321.148,142.359l-15.195,0.012l-0.002-2.152l6.31-0.005l-0.009-10.103l2.576-0.002l0.008,10.103
	l6.311-0.005L321.148,142.359z"/>
<path fill="#E2E2E3" d="M325.27,142.356l-2.576,0.002l-0.011-12.255l2.575-0.002L325.27,142.356z"/>
<path fill="#E2E2E3" d="M341.879,141.109c-1.631,1.104-3.59,1.656-5.879,1.658c-2.305,0.002-4.271-0.549-5.904-1.65
	c-1.861-1.247-2.792-2.867-2.793-4.859c-0.002-2.02,0.92-3.654,2.764-4.904c1.588-1.076,3.562-1.616,5.922-1.618
	c2.361-0.001,4.329,0.535,5.904,1.61c1.847,1.26,2.771,2.893,2.772,4.899C344.666,138.225,343.738,139.846,341.879,141.109z
	 M340.334,133.093c-1.097-0.806-2.549-1.206-4.354-1.205c-1.819,0.001-3.282,0.405-4.385,1.212
	c-1.103,0.806-1.653,1.861-1.653,3.166c0.002,1.252,0.564,2.289,1.691,3.115c1.125,0.824,2.577,1.235,4.354,1.234
	c1.763-0.002,3.203-0.412,4.32-1.231c1.118-0.819,1.676-1.862,1.675-3.127C341.981,134.952,341.432,133.897,340.334,133.093z"/>
<path fill="#E2E2E3" d="M361.668,142.33l-2.575,0.002l-0.009-10.227l-8.967,10.232l-3.838,0.004l-0.01-12.255l2.575-0.002
	l0.009,10.222l8.963-10.229l3.841-0.002L361.668,142.33z"/>
</svg>
